<svg width="304" height="491" viewBox="0 0 304 491" fill="none" xmlns="http://www.w3.org/2000/svg">
<path d="M30.7486 226.008V206.37H9.75416V226.008H0V179.4H9.75416V198.327H30.7486V179.4H40.503V226.008H30.7486ZM75.2244 214.702H58.8488L55.2958 226.008H45.2831L61.465 179.4H72.9313L89.1454 226.008H78.7774L75.2244 214.702ZM60.9482 207.403H73.125L67.1496 188.314H66.9236L60.9482 207.403ZM100.612 212.734C100.827 214.627 101.839 216.168 103.648 217.35C105.435 218.514 107.631 219.095 110.237 219.095C112.82 219.095 114.931 218.536 116.567 217.417C118.182 216.317 118.99 214.908 118.99 213.186C118.99 211.678 118.387 210.46 117.181 209.534C115.975 208.611 113.962 207.833 111.141 207.21L105.069 205.885C96.5204 204.055 92.2461 199.716 92.2461 192.87C92.2461 188.606 93.9149 185.15 97.2524 182.501C100.568 179.897 104.843 178.593 110.075 178.593C115.458 178.593 119.765 179.875 122.995 182.435C126.182 184.976 127.818 188.369 127.904 192.611H118.764C118.613 190.651 117.741 189.099 116.147 187.958C114.576 186.839 112.562 186.28 110.108 186.28C107.696 186.28 105.758 186.806 104.294 187.862C102.808 188.918 102.065 190.307 102.065 192.029C102.065 193.452 102.668 194.612 103.874 195.519C105.058 196.379 106.996 197.123 109.688 197.746L115.34 198.942C120.012 199.931 123.415 201.483 125.546 203.592C127.678 205.681 128.744 208.5 128.744 212.056C128.744 216.576 127.043 220.162 123.641 222.81C120.239 225.481 115.641 226.815 109.849 226.815C104.229 226.815 99.7611 225.567 96.4449 223.07C93.1074 220.55 91.3633 217.105 91.2125 212.734H100.612ZM165.501 226.008V206.37H144.505V226.008H134.752V179.4H144.505V198.327H165.501V179.4H175.256V226.008H165.501ZM202.773 178.656C209.275 178.656 214.435 180.82 218.244 185.15C222.056 189.477 223.963 195.334 223.963 202.721C223.963 210.104 222.056 215.953 218.244 220.258C214.435 224.585 209.275 226.752 202.773 226.752C196.272 226.752 191.123 224.585 187.336 220.258C183.524 215.953 181.617 210.104 181.617 202.721C181.617 195.334 183.524 189.477 187.336 185.15C191.145 180.82 196.294 178.656 202.773 178.656ZM202.773 182.76C197.672 182.76 193.623 184.557 190.63 188.154C187.636 191.748 186.14 196.605 186.14 202.721C186.14 208.815 187.636 213.66 190.63 217.254C193.645 220.851 197.691 222.648 202.773 222.648C207.878 222.648 211.935 220.851 214.95 217.254C217.943 213.66 219.44 208.815 219.44 202.721C219.44 196.605 217.943 191.748 214.95 188.154C211.935 184.557 207.878 182.76 202.773 182.76ZM230.842 226.008V179.4H235.203L262.528 218.321H262.754V179.4H267.114V226.008H262.85L235.429 187.054H235.203V226.008H230.842ZM304 226.008H275.868V179.4H304V183.405H280.258V200.168H302.804V204.11H280.258V222.003H304V226.008Z" fill="white"/>
<path d="M84.9268 102.706C87.8001 99.8323 92.4586 99.8323 95.3319 102.706L117.876 125.25C120.749 128.123 120.749 132.781 117.876 135.655C115.003 138.528 110.344 138.528 107.471 135.655L84.9268 113.111C82.0537 110.237 82.0537 105.579 84.9268 102.706Z" fill="url(#paint0_linear)"/>
<path d="M87.3787 63.4663C90.252 60.5929 94.9105 60.5929 97.7838 63.4663L156.745 122.427C159.617 125.301 159.617 129.959 156.745 132.832C153.873 135.705 149.212 135.705 146.34 132.832L87.3787 73.8712C84.5056 70.9978 84.5056 66.3393 87.3787 63.4663Z" fill="url(#paint1_linear)"/>
<path d="M146.238 4.60718C149.11 1.73413 153.768 1.73413 156.643 4.60718L215.603 63.5684C218.478 66.4417 218.478 71.1 215.603 73.9733C212.731 76.8466 208.073 76.8466 205.198 73.9733L146.238 15.0123C143.363 12.139 143.363 7.48051 146.238 4.60718Z" fill="url(#paint2_linear)"/>
<path d="M185.479 2.15479C188.351 -0.718263 193.009 -0.718263 195.884 2.15479L218.427 24.6988C221.301 27.5721 221.301 32.2306 218.427 35.1037C215.555 37.977 210.897 37.977 208.022 35.1037L185.479 12.56C182.604 9.68663 182.604 5.02812 185.479 2.15479Z" fill="url(#paint3_linear)"/>
<path d="M177.232 62.4965C174.36 59.6232 169.702 59.6232 166.827 62.4965L145.651 83.6737C142.776 86.5471 142.776 91.2056 145.651 94.0786L170.757 119.185C173.629 122.059 178.287 122.059 181.162 119.185L186.357 113.99L166.036 93.6702C163.065 90.6982 163.065 85.8792 166.036 82.9072C169.007 79.9352 173.828 79.9352 176.799 82.9072L197.12 103.227L202.338 98.0078C205.212 95.1348 205.212 90.4763 202.338 87.603L177.232 62.4965Z" fill="url(#paint4_linear)"/>
<path d="M162.814 100.843C165.689 97.9695 170.347 97.9695 173.221 100.843L195.764 123.387C198.636 126.26 198.636 130.918 195.764 133.792C192.892 136.665 188.232 136.665 185.36 133.792L162.814 111.248C159.942 108.374 159.942 103.716 162.814 100.843Z" fill="url(#paint5_linear)"/>
<path d="M183.992 79.6679C186.867 76.7946 191.525 76.7946 194.397 79.6679L216.943 102.212C219.815 105.085 219.815 109.743 216.943 112.617C214.068 115.49 209.41 115.49 206.538 112.617L183.992 90.0728C181.12 87.1995 181.12 82.5413 183.992 79.6679Z" fill="url(#paint6_linear)"/>
<path d="M124.636 73.4506C127.509 76.3239 132.168 76.3239 135.041 73.4506L156.219 52.2731C159.09 49.4 159.09 44.7415 156.219 41.8682L131.112 16.7618C128.239 13.8885 123.58 13.8885 120.707 16.7618L115.512 21.9567L135.832 42.2767C138.804 45.2489 138.804 50.0676 135.832 53.0396C132.86 56.0119 128.041 56.0119 125.069 53.0396L104.749 32.7196L99.5298 37.939C96.6564 40.8123 96.6564 45.4708 99.5298 48.3439L124.636 73.4506Z" fill="url(#paint7_linear)"/>
<path d="M139.053 35.1036C136.18 37.9769 131.521 37.9769 128.648 35.1036L106.104 12.5599C103.231 9.68656 103.231 5.02805 106.104 2.155C108.978 -0.718332 113.636 -0.718332 116.509 2.155L139.053 24.6987C141.928 27.572 141.928 32.2305 139.053 35.1036Z" fill="url(#paint8_linear)"/>
<path d="M94.4391 22.5684V27.3496C94.4391 27.8884 94.6166 28.4121 94.9441 28.8401L98.9268 34.0438C99.8074 35.1945 101.488 35.3351 102.548 34.3465L104.513 32.5117L117.876 45.8742C120.749 48.7473 120.749 53.4058 117.876 56.2791C115.003 59.1522 110.344 59.1522 107.471 56.2791L84.927 33.7351C82.0536 30.8618 82.0536 26.2033 84.927 23.3302C87.5186 20.7386 91.5628 20.4845 94.4391 22.5684Z" fill="url(#paint9_linear)"/>
<path d="M0 352.185H9.21541V380.512H13.2719V352.185H22.796V348.264H0V352.185ZM27.1186 380.512H31.1751V366.899H45.4171V380.512H49.4736V348.264H45.4171V362.978H31.1751V348.264H27.1186V380.512ZM55.1932 374.873C55.1932 380.116 58.6766 380.82 61.5867 380.644C61.5867 380.644 74.4618 380.027 75.1232 379.895V376.723H61.9835C60.7048 376.723 59.2498 376.767 59.2498 374.433V366.635L73.3154 366.194V362.934L59.2498 362.494V354.696C59.2498 353.507 59.2498 352.229 61.5426 352.229H75.1232V348.969C74.3736 348.881 61.1458 348.264 61.1458 348.264C58.1474 348.176 55.1932 349.63 55.1932 354.256V374.873ZM90.6167 358.881C90.6167 362.318 91.3663 366.723 98.5975 366.723H104.462C107.196 366.723 107.857 368.353 107.857 370.688V373.331C107.857 376.811 104.506 376.944 102.698 376.944C98.5975 376.944 93.3504 376.635 91.5867 376.459V379.719C94.0118 380.248 99.9644 380.864 103.007 380.864C107.372 380.864 111.914 379.807 111.914 373.243V370.512C111.914 366.899 110.855 362.67 104.859 362.67H98.9061C96.3046 362.67 94.6732 362.274 94.6732 358.661V356.106C94.6732 352.097 96.8338 351.833 99.8321 351.921C100.273 351.921 107.945 352.185 110.767 352.361V349.145C108.871 348.793 102.345 348 99.3471 348C94.4087 348.044 90.6167 349.586 90.6167 355.974V358.881ZM114.71 352.185H123.926V380.512H127.982V352.185H137.506V348.264H114.71V352.185ZM135.337 380.512H140.055L142.789 372.054H155.046L157.692 380.512H162.322L151.21 348.264H146.933L135.337 380.512ZM144.111 368.177L149.05 354.124L153.812 368.177H144.111ZM166.545 380.512H170.646V355.886L186.696 380.512H190.752V348.264H186.696V372.979L170.69 348.264H166.545V380.512ZM196.472 380.512H208.95C217.283 380.512 220.326 372.45 220.326 364.52C220.326 357.56 218.694 348.264 208.95 348.264H196.472V380.512ZM200.528 376.547V352.141H208.818C213.492 352.141 216.269 355.269 216.269 364.476C216.269 371.217 214.153 376.547 208.818 376.547H200.528ZM221.671 380.512H226.389L229.122 372.054H241.38L244.026 380.512H248.656L237.544 348.264H233.267L221.671 380.512ZM230.445 368.177L235.384 354.124L240.146 368.177H230.445ZM252.13 380.512H256.186V366.987L264.079 367.604L270.472 380.512H274.926L268.312 367.384C269.723 367.12 273.823 366.327 273.823 358.088C273.823 350.643 270.428 348.264 265.975 348.264H252.13V380.512ZM256.186 363.551V352.185H265.843C267.783 352.185 269.723 352.89 269.723 358.088C269.723 363.419 267.871 363.551 265.843 363.551H256.186ZM279.146 380.512H291.624C299.958 380.512 303 372.45 303 364.52C303 357.56 301.369 348.264 291.624 348.264H279.146V380.512ZM283.202 376.547V352.141H291.492C296.166 352.141 298.943 355.269 298.943 364.476C298.943 371.217 296.827 376.547 291.492 376.547H283.202ZM29.8529 435.58H33.9094V421.703L47.975 421.262V418.002L33.9094 417.562V409.764C33.9094 408.575 33.9094 407.297 36.2023 407.297H49.7828V404.037C49.0333 403.949 35.8054 403.332 35.8054 403.332C32.7189 403.244 29.8529 404.786 29.8529 409.368V435.58ZM53.3918 419.676C53.3918 434.346 58.1098 435.756 66.0465 435.756C73.9832 435.756 78.613 433.906 78.613 419.676C78.613 404.566 73.6746 403.112 66.0465 403.112C58.6389 403.112 53.3918 404.566 53.3918 419.676ZM57.4484 419.676C57.4484 407.297 60.4908 407.033 66.0465 407.033C71.7345 407.033 74.5564 407.385 74.5564 419.676C74.5564 430.029 72.484 431.835 66.0465 431.835C59.4767 431.835 57.4484 430.337 57.4484 419.676ZM82.9706 435.58H87.0272V422.055L94.9198 422.672L101.313 435.58H105.767L99.1527 422.452C100.564 422.187 104.664 421.394 104.664 413.156C104.664 405.711 101.269 403.332 96.8158 403.332H82.9706V435.58ZM87.0272 418.619V407.253H96.6835C98.6236 407.253 100.564 407.958 100.564 413.156C100.564 418.487 98.7118 418.619 96.6835 418.619H87.0272ZM119.996 419.368C119.996 429.06 122.641 435.844 130.798 435.844C133.753 435.888 138.647 435.492 141.689 434.831V431.615C141.689 431.615 135.825 431.923 131.195 431.923C125.551 431.923 124.052 426.681 124.052 419.456C124.052 409.015 125.948 406.901 131.195 406.901C135.34 406.901 141.645 407.429 141.689 407.429V404.213C138.515 403.508 133.708 402.98 130.798 402.98C122.024 402.98 119.996 409.059 119.996 419.368ZM145.666 435.58H149.722V422.055L157.615 422.672L164.008 435.58H168.462L161.848 422.452C163.259 422.187 167.359 421.394 167.359 413.156C167.359 405.711 163.964 403.332 159.511 403.332H145.666V435.58ZM149.722 418.619V407.253H159.379C161.319 407.253 163.259 407.958 163.259 413.156C163.259 418.487 161.407 418.619 159.379 418.619H149.722ZM169.935 403.332L180.076 424.522V435.58H184.133V424.522L195.156 403.332H190.703L182.105 419.852L174.344 403.332H169.935ZM198.671 435.58H202.727V421.923C202.948 422.055 210.355 422.804 212.119 422.804C215.514 422.848 220.188 422.231 220.188 412.848C220.188 404.742 215.735 403.332 212.119 403.332H198.671V435.58ZM202.727 418.927V407.253H211.987C213.53 407.253 215.999 407.649 216.087 412.892C216.087 418.178 214.191 418.927 211.987 418.927H202.727ZM223.802 407.253H233.017V435.58H237.074V407.253H246.598V403.332H223.802V407.253ZM249.442 419.676C249.442 434.346 254.16 435.756 262.097 435.756C270.033 435.756 274.663 433.906 274.663 419.676C274.663 404.566 269.725 403.112 262.097 403.112C254.689 403.112 249.442 404.566 249.442 419.676ZM253.498 419.676C253.498 407.297 256.541 407.033 262.097 407.033C267.785 407.033 270.606 407.385 270.606 419.676C270.606 430.029 268.534 431.835 262.097 431.835C255.527 431.835 253.498 430.337 253.498 419.676ZM28.4728 474.436C28.4728 484.128 31.1183 490.912 39.2755 490.912C42.2297 490.956 47.124 490.56 50.1665 489.899V486.683C50.1665 486.683 44.3021 486.991 39.6724 486.991C34.0285 486.991 32.5293 481.749 32.5293 474.524C32.5293 464.083 34.4253 461.968 39.6724 461.968C43.8171 461.968 50.1224 462.497 50.1665 462.497V459.281C46.9918 458.576 42.1856 458.047 39.2755 458.047C30.501 458.047 28.4728 464.127 28.4728 474.436ZM52.9397 474.744C52.9397 489.414 57.6576 490.824 65.5944 490.824C73.5311 490.824 78.1608 488.974 78.1608 474.744C78.1608 459.633 73.2224 458.18 65.5944 458.18C58.1868 458.18 52.9397 459.633 52.9397 474.744ZM56.9963 474.744C56.9963 462.365 60.0387 462.1 65.5944 462.1C71.2823 462.1 74.1043 462.453 74.1043 474.744C74.1043 485.097 72.0319 486.903 65.5944 486.903C59.0245 486.903 56.9963 485.405 56.9963 474.744ZM83.2681 490.648H87.3687V466.021L103.418 490.648H107.475V458.4H103.418V483.114L87.4128 458.4H83.2681V490.648ZM112.577 469.017C112.577 472.453 113.327 476.859 120.558 476.859H126.422C129.156 476.859 129.817 478.489 129.817 480.824V483.467C129.817 486.947 126.466 487.079 124.659 487.079C120.558 487.079 115.311 486.771 113.547 486.595V489.855C115.972 490.383 121.925 491 124.967 491C129.332 491 133.874 489.943 133.874 483.379V480.647C133.874 477.035 132.816 472.806 126.819 472.806H120.867C118.265 472.806 116.634 472.409 116.634 468.797V466.242C116.634 462.233 118.794 461.968 121.793 462.056C122.233 462.056 129.906 462.321 132.728 462.497V459.281C130.832 458.929 124.306 458.136 121.308 458.136C116.369 458.18 112.577 459.722 112.577 466.109V469.017ZM138.987 476.55C138.987 491.22 145.072 490.868 151.069 490.868C156.404 490.868 162.93 490.78 162.93 476.55V458.4H158.829V476.55C158.829 486.507 155.39 486.947 151.069 486.947C146.086 486.947 143.043 486.815 143.043 476.55V458.4H138.987V476.55ZM168.655 484.921C168.655 489.899 171.785 490.648 174.872 490.648H188.276V486.727H175.445C174.166 486.727 172.711 486.771 172.711 484.436V458.4H168.655V484.921ZM186.233 462.321H195.448V490.648H199.505V462.321H209.029V458.4H186.233V462.321ZM213.35 490.648H217.407V458.4H213.35V490.648ZM223.126 490.648H227.226V466.021L243.276 490.648H247.333V458.4H243.276V483.114L227.271 458.4H223.126V490.648ZM252.038 474.348C252.038 483.687 253.405 491.044 262.532 490.868C266.412 490.868 269.014 489.546 270.601 488.489L271.571 490.648H274.569V473.334C273.511 473.246 272.497 473.202 271.571 473.202C268.132 473.202 265.707 473.731 263.899 474.303V476.947H270.513V484.965C270.513 484.965 266.103 487.035 262.841 486.991C257.682 486.903 256.094 483.863 256.094 474.436C256.094 465.801 257.241 461.924 262.796 461.924C267.338 461.924 273.687 462.497 273.952 462.497V459.325C270.425 458.576 265.398 458.047 262.4 458.047C253.625 458.047 252.038 465.405 252.038 474.348Z" fill="white"/>
<defs>
<linearGradient id="paint0_linear" x1="201.12" y1="17.7982" x2="99.3441" y2="119.575" gradientUnits="userSpaceOnUse">
<stop offset="0.00264941" stop-color="#783E97"/>
<stop offset="0.888832" stop-color="#32B0E5"/>
</linearGradient>
<linearGradient id="paint1_linear" x1="201.119" y1="17.7981" x2="99.3435" y2="119.575" gradientUnits="userSpaceOnUse">
<stop offset="0.00264941" stop-color="#783E97"/>
<stop offset="0.888832" stop-color="#32B0E5"/>
</linearGradient>
<linearGradient id="paint2_linear" x1="201.119" y1="17.7983" x2="99.3434" y2="119.575" gradientUnits="userSpaceOnUse">
<stop offset="0.00264941" stop-color="#783E97"/>
<stop offset="0.888832" stop-color="#32B0E5"/>
</linearGradient>
<linearGradient id="paint3_linear" x1="201.12" y1="17.7984" x2="99.3445" y2="119.575" gradientUnits="userSpaceOnUse">
<stop offset="0.00264941" stop-color="#783E97"/>
<stop offset="0.888832" stop-color="#32B0E5"/>
</linearGradient>
<linearGradient id="paint4_linear" x1="201.119" y1="17.7986" x2="99.3436" y2="119.576" gradientUnits="userSpaceOnUse">
<stop offset="0.00264941" stop-color="#783E97"/>
<stop offset="0.888832" stop-color="#32B0E5"/>
</linearGradient>
<linearGradient id="paint5_linear" x1="201.12" y1="17.7983" x2="99.3438" y2="119.575" gradientUnits="userSpaceOnUse">
<stop offset="0.00264941" stop-color="#783E97"/>
<stop offset="0.888832" stop-color="#32B0E5"/>
</linearGradient>
<linearGradient id="paint6_linear" x1="201.119" y1="17.7987" x2="99.3434" y2="119.576" gradientUnits="userSpaceOnUse">
<stop offset="0.00264941" stop-color="#783E97"/>
<stop offset="0.888832" stop-color="#32B0E5"/>
</linearGradient>
<linearGradient id="paint7_linear" x1="201.12" y1="17.7984" x2="99.3437" y2="119.575" gradientUnits="userSpaceOnUse">
<stop offset="0.00264941" stop-color="#783E97"/>
<stop offset="0.888832" stop-color="#32B0E5"/>
</linearGradient>
<linearGradient id="paint8_linear" x1="201.12" y1="17.7983" x2="99.3438" y2="119.575" gradientUnits="userSpaceOnUse">
<stop offset="0.00264941" stop-color="#783E97"/>
<stop offset="0.888832" stop-color="#32B0E5"/>
</linearGradient>
<linearGradient id="paint9_linear" x1="201.12" y1="17.7983" x2="99.3441" y2="119.575" gradientUnits="userSpaceOnUse">
<stop offset="0.00264941" stop-color="#783E97"/>
<stop offset="0.888832" stop-color="#32B0E5"/>
</linearGradient>
</defs>
</svg>
