<svg width="22" height="22" viewBox="0 0 22 22" fill="none" xmlns="http://www.w3.org/2000/svg">
<path d="M11 1C5.48595 1 1 5.48595 1 11C1 16.5141 5.48595 21 11 21C16.5141 21 21 16.5141 21 11C21 5.48595 16.514 1 11 1ZM16.733 3.75718C17.2303 4.15162 17.686 4.59612 18.0928 5.08291C17.877 5.04518 17.675 5.04918 17.4857 5.09551C17.1194 5.18508 16.8274 5.43001 16.6414 5.80367C16.5974 5.89202 16.5067 5.943 16.4092 5.93238C16.294 5.92029 16.205 5.82759 16.202 5.71678C16.1823 4.96613 16.5091 4.19445 16.733 3.75718ZM4.63279 4.3082C5.42981 3.54951 6.36172 2.93148 7.38835 2.4939C7.81192 2.7836 8.98168 3.63929 9.84597 4.79929C9.95202 4.94161 9.98763 5.12165 9.94368 5.29331C9.89973 5.46511 9.78179 5.60612 9.62015 5.68006C8.71085 6.09619 7.50589 6.74159 6.92953 7.45334C6.79601 7.61832 6.58035 7.69201 6.37977 7.64113C5.61062 7.44601 4.99264 7.67886 4.63962 8.29664C4.19374 9.07676 4.81532 9.83595 5.36376 10.5058C5.42617 10.582 5.48883 10.6587 5.55033 10.7354C4.97453 10.3935 4.53437 9.95132 4.23916 9.41471C3.72976 8.48852 3.38914 6.85275 4.63279 4.3082ZM1.75863 11C1.75863 9.18616 2.28426 7.49299 3.19068 6.06403C2.80105 7.76933 3.13899 8.98856 3.57445 9.78037C4.03898 10.6247 4.78351 11.2725 5.78743 11.7057C5.99403 11.7949 6.14859 11.976 6.20094 12.1904C6.20094 12.1904 6.22268 12.2839 6.23199 12.3302C6.30158 12.6758 6.35428 13.1904 6.27776 13.8477C6.16523 14.8186 6.59684 15.7714 7.40403 16.3342L8.15932 16.8612C8.11219 17.3995 8.04679 18.7585 8.43754 19.8797C4.58444 18.766 1.75863 15.2069 1.75863 11ZM19.9805 12.5455C19.958 12.1473 19.7672 11.7749 19.4569 11.5239C19.1502 11.2757 18.7518 11.1681 18.3638 11.2283L18.3309 11.2333C18.0348 11.2765 17.7396 11.2007 17.5002 11.0198C17.2567 10.8356 17.1003 10.5666 17.0601 10.2622C17.0159 9.92719 17.0003 9.60659 17.0136 9.30921C17.0231 9.09993 16.861 8.92266 16.6518 8.91325C16.4424 8.90369 16.2652 9.06584 16.2558 9.27512C16.2404 9.61686 16.258 9.98232 16.308 10.3614C16.375 10.8688 16.6359 11.3175 17.0428 11.625C17.4453 11.9293 17.9416 12.0567 18.4407 11.9839L18.4805 11.9779C18.6599 11.9501 18.8372 11.9983 18.9798 12.1137C19.1241 12.2303 19.2127 12.4033 19.2232 12.5883C19.2601 13.2418 19.4001 13.8097 19.6394 14.2802C18.3131 17.7613 14.941 20.2413 11 20.2413C10.6384 20.2413 10.2818 20.2197 9.93088 20.1791C10.0569 20.0508 10.2075 19.896 10.3858 19.7109C10.5311 19.56 10.5265 19.3199 10.3755 19.1746C10.2246 19.0294 9.98444 19.0339 9.83924 19.1848C9.57594 19.4584 9.37329 19.665 9.22318 19.8161C8.70271 18.595 8.93328 16.7478 8.93591 16.7272C8.95427 16.5869 8.89292 16.448 8.77685 16.367L7.83807 15.7119C7.26014 15.309 6.95102 14.6281 7.03139 13.9352C7.0943 13.394 7.08586 12.8642 7.00999 12.3798C7.67739 12.2 8.32526 12.1052 8.77746 12.0563C9.10989 12.0206 9.43762 12.131 9.67583 12.3595C10.2257 12.8872 11.0771 13.5025 12.2063 14.1883C12.5413 14.3918 12.7716 14.7304 12.8378 15.1172C12.9038 15.5027 12.7999 15.8971 12.5527 16.1991C12.2158 16.6107 11.8037 17.0841 11.328 17.6061C11.1869 17.7609 11.198 18.0008 11.3528 18.1419C11.4255 18.2082 11.517 18.2409 11.6082 18.2409C11.7112 18.2409 11.8138 18.1992 11.8887 18.1171C12.3734 17.5852 12.7943 17.1015 13.1398 16.6795C13.5261 16.2075 13.6886 15.5914 13.5855 14.9892C13.4821 14.3857 13.1229 13.8575 12.6 13.5399C11.5333 12.8921 10.7038 12.2946 10.201 11.8121C9.80055 11.4281 9.25216 11.2422 8.69598 11.3021C8.23827 11.3516 7.5909 11.4455 6.91259 11.6208C6.77522 11.0327 6.3428 10.5042 5.95069 10.0253C5.44367 9.40601 5.12428 8.97733 5.29816 8.67307C5.41039 8.47674 5.62524 8.23235 6.19315 8.37655C6.67938 8.49985 7.1999 8.32491 7.51899 7.93077C7.89648 7.46467 8.75475 6.91036 9.93574 6.36991C10.3067 6.20018 10.5774 5.87634 10.6785 5.4815C10.7796 5.08686 10.6979 4.673 10.4543 4.34608C9.73212 3.3768 8.83602 2.61933 8.24854 2.17694C9.11798 1.90525 10.0421 1.75868 10.9999 1.75868C12.8889 1.75868 14.6471 2.32882 16.1122 3.30549C15.8519 3.79066 15.4177 4.75321 15.4437 5.7368C15.4565 6.22663 15.8375 6.63513 16.3298 6.68692C16.3639 6.69051 16.398 6.69228 16.432 6.69228C16.8037 6.69228 17.1521 6.48001 17.3205 6.14186C17.448 5.8858 17.612 5.84564 17.6659 5.83244C17.8351 5.79107 18.222 5.80088 18.942 6.303C18.7873 6.30568 18.6077 6.29956 18.4128 6.27554C18.1235 6.23988 17.8366 6.31225 17.6047 6.479C17.4526 6.58819 17.3083 6.7163 17.1755 6.85968C17.0332 7.01343 17.0424 7.25341 17.1961 7.39573C17.269 7.4633 17.3615 7.49673 17.4537 7.49673C17.5557 7.49673 17.6574 7.45587 17.7321 7.37515C17.8304 7.26894 17.9365 7.17472 18.0474 7.09501C18.1241 7.03983 18.2212 7.01616 18.3201 7.02845C18.7432 7.0806 19.1075 7.06335 19.3477 7.03781C19.9203 8.23928 20.2413 9.58282 20.2413 11C20.2413 11.6818 20.1665 12.3463 20.0257 12.9864C20.0043 12.8459 19.9892 12.6989 19.9805 12.5455Z" fill="white" stroke="white" stroke-width="0.5"/>
<path d="M11.2313 18.4999C11.2222 18.4771 11.2106 18.4548 11.1969 18.4346C11.1827 18.4134 11.167 18.3941 11.1494 18.377C11.1321 18.3593 11.1129 18.3436 11.0917 18.3294C11.0715 18.3158 11.0492 18.3041 11.0264 18.2945C11.0037 18.2854 10.9794 18.2778 10.9557 18.2733C10.9066 18.2632 10.856 18.2632 10.807 18.2733C10.7832 18.2778 10.7589 18.2854 10.7362 18.2945C10.7135 18.3041 10.6912 18.3158 10.671 18.3294C10.6503 18.3436 10.6305 18.3593 10.6133 18.377C10.5956 18.3941 10.5799 18.4134 10.5658 18.4346C10.5521 18.4548 10.5405 18.4771 10.5309 18.4999C10.5218 18.5226 10.5142 18.5469 10.5097 18.5707C10.5046 18.5954 10.5021 18.6202 10.5021 18.645C10.5021 18.6698 10.5047 18.6946 10.5097 18.7188C10.5142 18.7431 10.5218 18.7669 10.5309 18.7902C10.5405 18.8129 10.5521 18.8347 10.5658 18.8554C10.5799 18.8761 10.5956 18.8959 10.6133 18.9131C10.6305 18.9308 10.6502 18.9464 10.671 18.9601C10.6912 18.9737 10.7135 18.9859 10.7362 18.995C10.7589 19.0046 10.7833 19.0117 10.807 19.0167C10.8318 19.0218 10.8566 19.0243 10.8813 19.0243C10.9061 19.0243 10.9309 19.0218 10.9557 19.0167C10.9795 19.0117 11.0037 19.0046 11.0265 18.995C11.0493 18.9859 11.0716 18.9737 11.0917 18.9601C11.113 18.9464 11.1322 18.9308 11.1494 18.9131C11.1671 18.8959 11.1828 18.8761 11.1969 18.8554C11.2106 18.8347 11.2222 18.8129 11.2313 18.7902C11.2409 18.7669 11.2486 18.7431 11.2531 18.7188C11.2582 18.6946 11.2607 18.6698 11.2607 18.645C11.2607 18.6202 11.2581 18.5954 11.2531 18.5707C11.2485 18.5468 11.2409 18.5226 11.2313 18.4999Z" fill="white" stroke="white" stroke-width="0.5"/>
<path d="M12.8091 2.69019C12.7476 2.63486 12.1536 2.14499 10.2603 1.98724C9.98108 1.96388 9.86303 2.15025 9.83345 2.20786C9.69502 2.47727 9.86789 2.68048 10.1295 2.98814C10.4318 3.34348 10.9376 3.93825 11.0159 4.53848C11.0358 4.69071 11.1454 4.81599 11.2937 4.85574C11.3263 4.86449 11.3593 4.86874 11.392 4.86874C11.5081 4.86874 11.6201 4.81523 11.693 4.7202L12.8562 3.20293C12.9768 3.04584 12.9561 2.8226 12.8091 2.69019ZM11.5333 3.68173C11.3809 3.36371 11.1802 3.07892 10.9923 2.84086C11.4565 2.919 11.7745 3.0159 11.9817 3.09697L11.5333 3.68173Z" fill="white" stroke="white" stroke-width="0.5"/>
<path d="M17.0486 7.85261C17.0278 7.83895 17.0061 7.82732 16.9828 7.81771C16.9601 7.8081 16.9363 7.80102 16.912 7.79596C16.8629 7.78635 16.8129 7.78635 16.7638 7.79596C16.7395 7.80102 16.7158 7.8081 16.693 7.81771C16.6698 7.82732 16.648 7.83895 16.6273 7.85261C16.6065 7.86626 16.5873 7.88245 16.5696 7.89964C16.5524 7.91735 16.5362 7.93656 16.5225 7.9573C16.5089 7.97804 16.4972 8.00029 16.4877 8.02305C16.4781 8.04581 16.471 8.06958 16.4659 8.09385C16.4613 8.11864 16.4588 8.14342 16.4588 8.1682C16.4588 8.19298 16.4613 8.21776 16.4659 8.24204C16.4709 8.26627 16.478 8.29009 16.4876 8.31335C16.4972 8.33611 16.5089 8.35786 16.5225 8.37859C16.5362 8.39933 16.5524 8.41855 16.5696 8.43625C16.6403 8.50706 16.738 8.54752 16.8381 8.54752C16.8624 8.54752 16.8877 8.54499 16.912 8.53993C16.9362 8.53487 16.96 8.52779 16.9828 8.51818C17.006 8.50908 17.0278 8.49694 17.0485 8.48328C17.0692 8.46963 17.0885 8.45395 17.1062 8.43625C17.1234 8.41855 17.1395 8.39933 17.1533 8.37859C17.1669 8.35786 17.1785 8.33611 17.1881 8.31335C17.1977 8.29009 17.2048 8.26632 17.2099 8.24204C17.215 8.21776 17.217 8.19298 17.217 8.1682C17.217 8.06806 17.1765 7.97045 17.1062 7.89964C17.0885 7.88245 17.0693 7.86626 17.0486 7.85261Z" fill="white" stroke="white" stroke-width="0.5"/>
</svg>
