<svg width="19" height="22" viewBox="0 0 19 22" fill="none" xmlns="http://www.w3.org/2000/svg">
<path d="M12.7734 12.7344L12.7227 12.7109C12.6016 12.6562 12.4766 12.6016 12.3516 12.5547C12.2148 12.5 12.0742 12.4492 11.9336 12.4023C11.8242 12.3672 11.7109 12.332 11.5977 12.2969C11.4258 12.2461 11.25 12.2031 11.0703 12.1641C11.0078 12.1523 10.9492 12.1406 10.8867 12.1289L10.8438 12.1211C10.7383 12.1016 10.6328 12.082 10.5234 12.0664L10.4922 12.0625H10.4883L10.457 12.0586C10.3672 12.0469 10.2773 12.0312 10.1875 12.0234L9.87109 11.9961C9.48438 11.9688 9.08594 11.9727 8.70313 12L8.58985 12.0078L8.53906 12.0117L8.41016 12.0234C8.28906 12.0352 8.17188 12.0508 8.05078 12.0703L8.01563 12.0742C7.93359 12.0859 7.85156 12.1016 7.77344 12.1172C7.68359 12.1328 7.59766 12.1523 7.50781 12.168C7.33984 12.207 7.16797 12.25 7.00781 12.2969C6.87891 12.3359 6.75 12.375 6.62891 12.418L6.54688 12.4492C6.29297 12.5391 6.03906 12.6445 5.79297 12.7578L5.72656 12.7891C2.85547 14.1641 1 17.0977 1 20.2773C1 20.3516 1.00391 20.4219 1.00781 20.4961L1.03125 21H17.582L17.6055 20.5C17.6094 20.4258 17.6133 20.3516 17.6133 20.2773C17.6172 17.0469 15.7148 14.0898 12.7734 12.7344ZM1.8125 20.1875C1.84766 17.332 3.53516 14.7109 6.10938 13.5039L6.19141 13.4727L6.19922 13.4648C6.40234 13.3711 6.60938 13.2891 6.82031 13.2148L6.88672 13.1914C7 13.1523 7.11719 13.1133 7.23438 13.082C7.38281 13.0391 7.53516 13 7.68359 12.9648C7.76172 12.9492 7.83985 12.9336 7.92188 12.918C7.98438 12.9062 8.05078 12.8945 8.11328 12.8828L8.14453 12.8789C8.26172 12.8594 8.37891 12.8438 8.49219 12.832L8.75781 12.8086C9.10547 12.7812 9.4375 12.7812 9.83985 12.8086L10.0977 12.832C10.1602 12.8398 10.2266 12.8477 10.3008 12.8594L10.3945 12.8711C10.4922 12.8867 10.5898 12.9023 10.6875 12.9219L10.7344 12.9297C10.7891 12.9414 10.8438 12.9492 10.8945 12.9609C11.0547 12.9961 11.2109 13.0391 11.3672 13.082C11.4688 13.1133 11.5742 13.1445 11.6719 13.1758C11.7969 13.2188 11.9219 13.2656 12.0469 13.3125C12.1641 13.3594 12.2813 13.4102 12.3984 13.4609L12.418 13.4688C15.0508 14.6758 16.7617 17.3047 16.7969 20.1914L1.8125 20.1875ZM7.30469 10.9492C7.36719 10.9766 7.42969 10.9961 7.49219 11.0195L7.625 11.0664C7.67578 11.0859 7.72656 11.1055 7.77735 11.1211C8.26172 11.2734 8.76563 11.3516 9.28125 11.3555H9.32031C9.49609 11.3555 9.67188 11.3477 9.84375 11.3281C9.90235 11.3242 9.95703 11.3125 10.0156 11.3047L10.1445 11.2852C10.2148 11.2773 10.2891 11.2656 10.3633 11.25C10.4141 11.2383 10.4648 11.2266 10.5117 11.2109L10.6523 11.1758C10.7227 11.1602 10.7891 11.1406 10.8555 11.1211C10.8984 11.1094 10.9375 11.0938 10.9805 11.0781L11.0938 11.0391C11.1719 11.0117 11.2539 10.9844 11.332 10.9492C11.3633 10.9375 11.3945 10.9219 11.4219 10.9062L11.457 10.8867C11.5664 10.8359 11.6758 10.7891 11.7852 10.7305L11.8555 10.6875C11.9766 10.6172 12.0977 10.5469 12.2227 10.4648C12.2852 10.4219 12.3477 10.375 12.4063 10.3242L12.6133 10.1641C13.8086 9.17578 14.4922 7.72266 14.4922 6.21875L14.4961 6.17578C14.5 3.32422 12.1758 1 9.32031 1C6.59375 1 4.32813 3.13281 4.15625 5.85156L4.15234 5.91797C4.14453 6.00391 4.14063 6.08984 4.14063 6.17578C4.14063 8.26562 5.38281 10.1367 7.30469 10.9492ZM4.96094 5.97656L4.96484 5.90234C5.10938 3.60938 7.01953 1.8125 9.31641 1.8125C11.7266 1.8125 13.6836 3.76953 13.6836 6.14062L13.6797 6.18359C13.6797 7.48438 13.0977 8.70703 12.0859 9.54688L11.8945 9.69531C11.8516 9.73047 11.8086 9.76562 11.7539 9.80078C11.6563 9.86719 11.5547 9.92578 11.4492 9.98438L11.3906 10.0195C11.3047 10.0664 11.2109 10.1094 11.1133 10.1523L11.0039 10.2031C10.9414 10.2305 10.8789 10.25 10.8125 10.2734L10.6797 10.3203C10.6523 10.3281 10.6289 10.3398 10.6016 10.3477C10.5508 10.3633 10.5 10.375 10.4492 10.3867L10.2891 10.4297C10.2539 10.4375 10.2188 10.4492 10.1875 10.457C10.1328 10.4688 10.0781 10.4766 10.0234 10.4844L9.87109 10.5078C9.83203 10.5156 9.79688 10.5195 9.75391 10.5234C9.61719 10.5391 9.48438 10.5469 9.34375 10.5469H9.30469C8.85938 10.5469 8.42578 10.4805 8.00781 10.3516C7.97266 10.3398 7.9375 10.3242 7.90235 10.3125L7.75 10.2578C7.70313 10.2422 7.65625 10.2266 7.60938 10.207C5.98828 9.52344 4.94141 7.94141 4.94141 6.18359C4.95313 6.10938 4.95703 6.04297 4.96094 5.97656Z" fill="white" stroke="white" stroke-miterlimit="10"/>
</svg>
