<svg width="12" height="12" viewBox="0 0 12 12" fill="none" xmlns="http://www.w3.org/2000/svg">
<mask id="path-1-inside-1" fill="white">
<path fill-rule="evenodd" clip-rule="evenodd" d="M4.99998 0H0V5.00003H4.99998V0ZM4.99998 7.00016H0V12.0002H4.99998V7.00016ZM6.99998 0H12V5.00003H6.99998V0ZM12 7.00016H6.99998V12.0002H12V7.00016Z"/>
</mask>
<path fill-rule="evenodd" clip-rule="evenodd" d="M4.99998 0H0V5.00003H4.99998V0ZM4.99998 7.00016H0V12.0002H4.99998V7.00016ZM6.99998 0H12V5.00003H6.99998V0ZM12 7.00016H6.99998V12.0002H12V7.00016Z" fill="black" fill-opacity="0.01"/>
<path d="M0 0V-1H-1V0H0ZM4.99998 0H5.99998V-1H4.99998V0ZM0 5.00003H-1V6.00003H0V5.00003ZM4.99998 5.00003V6.00003H5.99998V5.00003H4.99998ZM0 7.00016V6.00016H-1V7.00016H0ZM4.99998 7.00016H5.99998V6.00016H4.99998V7.00016ZM0 12.0002H-1V13.0002H0V12.0002ZM4.99998 12.0002V13.0002H5.99998V12.0002H4.99998ZM12 0H13V-1H12V0ZM6.99998 0V-1H5.99998V0H6.99998ZM12 5.00003V6.00003H13V5.00003H12ZM6.99998 5.00003H5.99998V6.00003H6.99998V5.00003ZM6.99998 7.00016V6.00016H5.99998V7.00016H6.99998ZM12 7.00016H13V6.00016H12V7.00016ZM6.99998 12.0002H5.99998V13.0002H6.99998V12.0002ZM12 12.0002V13.0002H13V12.0002H12ZM0 1H4.99998V-1H0V1ZM1 5.00003V0H-1V5.00003H1ZM4.99998 4.00003H0V6.00003H4.99998V4.00003ZM3.99998 0V5.00003H5.99998V0H3.99998ZM0 8.00016H4.99998V6.00016H0V8.00016ZM1 12.0002V7.00016H-1V12.0002H1ZM4.99998 11.0002H0V13.0002H4.99998V11.0002ZM3.99998 7.00016V12.0002H5.99998V7.00016H3.99998ZM12 -1H6.99998V1H12V-1ZM13 5.00003V0H11V5.00003H13ZM6.99998 6.00003H12V4.00003H6.99998V6.00003ZM5.99998 0V5.00003H7.99998V0H5.99998ZM6.99998 8.00016H12V6.00016H6.99998V8.00016ZM7.99998 12.0002V7.00016H5.99998V12.0002H7.99998ZM12 11.0002H6.99998V13.0002H12V11.0002ZM11 7.00016V12.0002H13V7.00016H11Z" fill="white" mask="url(#path-1-inside-1)"/>
</svg>
